<svg xmlns="http://www.w3.org/2000/svg" width="49.778" height="49.43" viewBox="0 0 49.778 49.43">
  <defs>
    <style>.a{fill:#06754B;}</style>
  </defs>
  <path class="a" d="M215.648,1.107H204.471a1.177,1.177,0,0,0-1.177,1.177V5.422A1.177,1.177,0,0,0,204.471,6.6h2.977l-8.965,8.964a1.177,1.177,0,0,0,0,1.664l2.219,2.219a1.177,1.177,0,0,0,1.665,0l8.965-8.964V13.46a1.177,1.177,0,0,0,1.177,1.177h3.138a1.177,1.177,0,0,0,1.177-1.177V2.284A1.177,1.177,0,0,0,215.648,1.107Z" transform="translate(-167.047 -1.107)"/>
  <path class="a" d="M9.376,6.6h2.977A1.177,1.177,0,0,0,13.53,5.422V2.284a1.177,1.177,0,0,0-1.177-1.177H1.177A1.177,1.177,0,0,0,0,2.284V13.46a1.177,1.177,0,0,0,1.177,1.177H4.315A1.177,1.177,0,0,0,5.492,13.46V10.483l8.964,8.964a1.177,1.177,0,0,0,1.665,0l2.219-2.219a1.177,1.177,0,0,0,0-1.664Z" transform="translate(0 -1.107)"/>
  <path class="a" d="M16.121,197.381a1.177,1.177,0,0,0-1.665,0l-8.964,8.964v-2.977a1.177,1.177,0,0,0-1.177-1.177H1.177A1.177,1.177,0,0,0,0,203.368v11.176a1.177,1.177,0,0,0,1.177,1.177H12.353a1.177,1.177,0,0,0,1.177-1.177v-3.138a1.177,1.177,0,0,0-1.177-1.177H9.376l8.964-8.964a1.177,1.177,0,0,0,0-1.664Z" transform="translate(0 -166.291)"/>
  <path class="a" d="M215.648,202.192h-3.138a1.177,1.177,0,0,0-1.177,1.177v2.978l-8.965-8.964a1.177,1.177,0,0,0-1.664,0l-2.219,2.219a1.176,1.176,0,0,0,0,1.664l8.965,8.964h-2.977a1.177,1.177,0,0,0-1.177,1.177v3.138a1.177,1.177,0,0,0,1.177,1.177h11.176a1.177,1.177,0,0,0,1.177-1.177V203.369A1.177,1.177,0,0,0,215.648,202.192Z" transform="translate(-167.047 -166.292)"/>
</svg>