<svg xmlns="http://www.w3.org/2000/svg" width="53.731" height="40.143" viewBox="0 0 53.731 40.143"><defs><style>.a{fill:#fff;}.b{fill:none;stroke:#fff;stroke-width:2px;}</style></defs><g transform="translate(0 7.484) rotate(-9)"><g transform="translate(0 0)"><g transform="translate(0 0)"><g transform="translate(0 0)"><path class="a" d="M14.908,33.066a4.27,4.27,0,0,1-3.034-1.253L1.257,21.227a4.267,4.267,0,0,1,0-6.048L3.12,13.32,19.78,29.979l-1.839,1.834A4.268,4.268,0,0,1,14.908,33.066Zm6.335-4.547h0L4.585,11.86,14.908,1.569c.184-.193.343-.367.483-.521C16.046.328,16.344,0,17.245,0H31.112a1.976,1.976,0,0,1,1.98,1.975V8.649c-2.051-.123-5.7-.693-7.18-.933-.081-.1-.168-.193-.258-.283a4.133,4.133,0,1,0,1.2,2.665c1.9.262,4.723.553,6.237.7v5c0,.947-.463,1.4-1.165,2.075-.107.1-.219.212-.335.328L21.244,28.518Zm1.49-16.1a2.066,2.066,0,1,1,1.46-.6A2.051,2.051,0,0,1,22.733,12.42Z"/></g></g></g><path class="b" d="M0,9.182c7.24,0,29.885,6.029,28.477-4.994C28.1,1.363,25.285-.51,21.293.125c-3.486.516-4.719,2.754-8.525,3.42-8.223.932-8.121-.318-8.121-.318" transform="translate(22.722 1.706)"/></g></svg>