<svg xmlns="http://www.w3.org/2000/svg" width="54.413" height="54.027" viewBox="0 0 54.413 54.027">
  <defs>
    <style>.a{fill:#06754B;}</style>
  </defs>
  <path class="a" d="M193.595,21.917h12.447a1.311,1.311,0,0,0,1.311-1.311v-3.5a1.311,1.311,0,0,0-1.311-1.311h-3.316l9.984-9.984a1.311,1.311,0,0,0,0-1.854l-2.471-2.472a1.31,1.31,0,0,0-1.854,0L198.4,11.475V8.158a1.311,1.311,0,0,0-1.311-1.311h-3.5a1.311,1.311,0,0,0-1.311,1.311V20.606A1.311,1.311,0,0,0,193.595,21.917Z" transform="translate(-158.68 -1.107)"/>
  <path class="a" d="M19.5,6.848H16a1.311,1.311,0,0,0-1.311,1.311v3.316L4.709,1.491a1.311,1.311,0,0,0-1.854,0L.384,3.963a1.311,1.311,0,0,0,0,1.854L10.368,15.8H7.052a1.311,1.311,0,0,0-1.311,1.311v3.5a1.311,1.311,0,0,0,1.311,1.311H19.5a1.311,1.311,0,0,0,1.311-1.311V8.159A1.311,1.311,0,0,0,19.5,6.848Z" transform="translate(0 -1.107)"/>
  <path class="a" d="M19.5,191.179H7.052a1.311,1.311,0,0,0-1.311,1.311v3.5A1.311,1.311,0,0,0,7.052,197.3h3.316L.384,207.279a1.311,1.311,0,0,0,0,1.854L2.855,211.6a1.311,1.311,0,0,0,1.854,0l9.984-9.983v3.316A1.311,1.311,0,0,0,16,206.248h3.5a1.311,1.311,0,0,0,1.311-1.311V192.49A1.311,1.311,0,0,0,19.5,191.179Z" transform="translate(0 -157.962)"/>
  <path class="a" d="M202.726,197.3h3.316a1.311,1.311,0,0,0,1.311-1.311v-3.5a1.311,1.311,0,0,0-1.311-1.311H193.595a1.311,1.311,0,0,0-1.311,1.311v12.447a1.311,1.311,0,0,0,1.311,1.311h3.5a1.311,1.311,0,0,0,1.311-1.311v-3.316l9.984,9.984a1.311,1.311,0,0,0,1.854,0l2.471-2.472a1.31,1.31,0,0,0,0-1.854Z" transform="translate(-158.68 -157.962)"/>
</svg>