<svg xmlns="http://www.w3.org/2000/svg" width="30.819" height="36.983" viewBox="0 0 30.819 36.983">
  <defs>
    <style>.a{fill:#666666;}</style>
  </defs>
  <g transform="translate(0)">
    <path class="a" d="M52.683,0h-7.7a2.314,2.314,0,0,0-2.311,2.311v32.36a2.314,2.314,0,0,0,2.311,2.311h7.7a2.314,2.314,0,0,0,2.311-2.311V2.311A2.314,2.314,0,0,0,52.683,0Z" transform="translate(-42.667)"/>
  </g>
  <g transform="translate(18.491)">
    <path class="a" d="M308.683,0h-7.7a2.314,2.314,0,0,0-2.311,2.311v32.36a2.314,2.314,0,0,0,2.311,2.311h7.7a2.314,2.314,0,0,0,2.311-2.311V2.311A2.314,2.314,0,0,0,308.683,0Z" transform="translate(-298.667)"/>
  </g>
</svg>