<svg xmlns="http://www.w3.org/2000/svg" width="39.008" height="32.508" viewBox="0 0 39.008 32.508"><defs><style>.a{fill:#333;}</style></defs><path class="a" d="M14.562,4.853,8.537,10.877H1.625A1.625,1.625,0,0,0,0,12.5v9.752A1.625,1.625,0,0,0,1.625,23.88H8.537L14.562,29.9a1.626,1.626,0,0,0,2.775-1.149V6A1.626,1.626,0,0,0,14.562,4.853Zm15.8-3.459a1.639,1.639,0,0,0-1.8,2.74,15.823,15.823,0,0,1,0,26.49,1.639,1.639,0,1,0,1.8,2.739,19.1,19.1,0,0,0,0-31.97Zm2.143,15.985A12.5,12.5,0,0,0,26.7,6.8a1.618,1.618,0,0,0-2.243.505,1.645,1.645,0,0,0,.5,2.259,9.256,9.256,0,0,1,0,15.633,1.644,1.644,0,0,0-.5,2.259,1.621,1.621,0,0,0,2.243.505A12.5,12.5,0,0,0,32.507,17.378Zm-9.6-5.206a1.626,1.626,0,0,0-1.568,2.848,2.669,2.669,0,0,1,0,4.715,1.626,1.626,0,0,0,1.568,2.848,5.921,5.921,0,0,0,0-10.412Z" transform="translate(0 -1.125)"/></svg>